HIERARCHY
ROOT Hips
{
	OFFSET 0.000000 0.000000 0.000000
	CHANNELS 6 Xposition Yposition Zposition Xrotation Yrotation Zrotation
	JOINT LeftUpLeg_virtual
	{
		OFFSET 0.000000 0.000000 0.000000
		CHANNELS 3 Xrotation Yrotation Zrotation
		JOINT LeftUpLeg
		{
			OFFSET 10.205400 -3.823500 0.155100
			CHANNELS 3 Xrotation Yrotation Zrotation
			JOINT LeftLeg
			{
				OFFSET 0.708757 -12.982077 0.567790
				CHANNELS 3 Xrotation Yrotation Zrotation
				JOINT LeftFoot
				{
					OFFSET -0.708756 -10.717838 -2.184338
					CHANNELS 3 Xrotation Yrotation Zrotation
					JOINT LeftToeBase
					{
						OFFSET 0.108149 -7.191104 7.560241
						CHANNELS 3 Xrotation Yrotation Zrotation
						JOINT LeftToe_End
						{
							OFFSET 0.070230 0.081724 4.490308
							CHANNELS 3 Xrotation Yrotation Zrotation
							End Site
							{
								OFFSET 0 0 0
							}
						}
					}
				}
			}
		}
	}
	JOINT RightUpLeg_virtual
	{
		OFFSET 0.000000 0.000000 0.000000
		CHANNELS 3 Xrotation Yrotation Zrotation
		JOINT RightUpLeg
		{
			OFFSET -10.205400 -3.823500 0.005500
			CHANNELS 3 Xrotation Yrotation Zrotation
			JOINT RightLeg
			{
				OFFSET -0.708756 -12.982134 0.610632
				CHANNELS 3 Xrotation Yrotation Zrotation
				JOINT RightFoot
				{
					OFFSET 0.708754 -10.717769 -1.945823
					CHANNELS 3 Xrotation Yrotation Zrotation
					JOINT RightToeBase
					{
						OFFSET -0.108140 -7.191069 7.372968
						CHANNELS 3 Xrotation Yrotation Zrotation
						JOINT RightToe_End
						{
							OFFSET -0.070227 0.081735 4.479403
							CHANNELS 3 Xrotation Yrotation Zrotation
							End Site
							{
								OFFSET 0 0 0
							}
						}
					}
				}
			}
		}
	}
	JOINT Spine_virtual
	{
		OFFSET 0.000000 0.000000 0.000000
		CHANNELS 3 Xrotation Yrotation Zrotation
		JOINT Spine
		{
			OFFSET 0.000000 6.876099 0.125700
			CHANNELS 3 Xrotation Yrotation Zrotation
			JOINT Spine1
			{
				OFFSET 0.000000 5.730043 0.104720
				CHANNELS 3 Xrotation Yrotation Zrotation
				JOINT Spine1_split
				{
					OFFSET 0.000000 5.730043 0.104720
					CHANNELS 3 Xrotation Yrotation Zrotation
					JOINT Spine2
					{
						OFFSET 0.000000 5.730043 0.104720
						CHANNELS 3 Xrotation Yrotation Zrotation
						JOINT Neck_virtual
						{
							OFFSET 0.000000 0.000000 0.000000
							CHANNELS 3 Xrotation Yrotation Zrotation
							JOINT Neck
							{
								OFFSET 0.000000 10.314075 0.188496
								CHANNELS 3 Xrotation Yrotation Zrotation
								JOINT Head
								{
									OFFSET 0.000000 7.643700 -2.377400
									CHANNELS 3 Xrotation Yrotation Zrotation
									JOINT HeadTop_End
									{
										OFFSET 0.000000 43.788605 -13.619600
										CHANNELS 3 Xrotation Yrotation Zrotation
										End Site
										{
											OFFSET 0 0 0
										}
									}
								}
							}
						}
						JOINT LeftShoulder_virtual
						{
							OFFSET 0.000000 0.000000 0.000000
							CHANNELS 3 Xrotation Yrotation Zrotation
							JOINT LeftShoulder
							{
								OFFSET 2.196100 4.412489 0.087492
								CHANNELS 3 Xrotation Yrotation Zrotation
								JOINT LeftShoulder_split
								{
									OFFSET 2.196100 4.412489 0.087492
									CHANNELS 3 Xrotation Yrotation Zrotation
									JOINT LeftArm
									{
										OFFSET 8.771219 -2.981674 -0.026999
										CHANNELS 3 Xrotation Yrotation Zrotation
										JOINT LeftForeArm
										{
											OFFSET 8.512804 0.000000 -0.000000
											CHANNELS 3 Xrotation Yrotation Zrotation
											JOINT LeftHand
											{
												OFFSET 18.484802 0.000000 -0.000000
												CHANNELS 3 Xrotation Yrotation Zrotation
												End Site
												{
													OFFSET 0 0 0
												}
											}
										}
									}
								}
							}
						}
						JOINT RightShoulder_virtual
						{
							OFFSET 0.000000 0.000000 0.000000
							CHANNELS 3 Xrotation Yrotation Zrotation
							JOINT RightShoulder
							{
								OFFSET -2.196100 4.412496 0.070690
								CHANNELS 3 Xrotation Yrotation Zrotation
								JOINT RightShoulder_split
								{
									OFFSET -2.196100 4.412496 0.070690
									CHANNELS 3 Xrotation Yrotation Zrotation
									JOINT RightArm
									{
										OFFSET -8.771282 -2.981682 -0.094208
										CHANNELS 3 Xrotation Yrotation Zrotation
										JOINT RightForeArm
										{
											OFFSET -8.494598 0.000000 0.000000
											CHANNELS 3 Xrotation Yrotation Zrotation
											JOINT RightHand
											{
												OFFSET -18.483803 0.000000 0.000001
												CHANNELS 3 Xrotation Yrotation Zrotation
												End Site
												{
													OFFSET 0 0 0
												}
											}
										}
									}
								}
							}
						}
					}
				}
			}
		}
	}
}
MOTION
Frames: 4
Frame Time: 0.03333333
0.062660 25.802780 1.018244 0.000000 0.000000 0.000000 5.716151 -4.294752 -20.749590 -72.769307 18.644552 19.489726 103.590030 -3.240654 6.588666 15.902490 2.461369 26.859473 0.174152 -1.187296 -4.035798 0.000000 0.000000 0.000000 3.219023 -4.398598 -20.792940 -0.461595 -9.811556 -12.762015 51.529806 10.758994 9.383735 7.140343 14.820228 -5.874702 -47.789198 4.002163 -2.179422 0.000000 0.000000 0.000000 -0.097104 0.504179 -19.204846 5.446891 4.906505 2.181902 2.723100 2.192060 1.513588 1.135736 2.243473 0.807041 0.000000 0.000000 0.000000 1.861897 1.120017 2.664524 -7.123971 2.672843 -3.056433 -14.952881 6.488630 3.237515 0.000000 0.000000 0.000000 2.509491 1.697916 1.458613 -0.956552 -6.244653 -5.461597 -1.036266 1.227007 -2.184218 62.763312 -16.892354 -41.587570 10.211629 -76.281363 10.102431 0.000000 0.000000 0.000000 3.753600 2.243146 2.128135 2.926518 -5.129093 8.252621 7.679809 4.370259 -5.860418 -15.422253 21.737774 54.936642 7.988289 77.913081 -7.954721 0.000000 0.000000 0.000000 
0.125339 26.554144 6.672009 0.000000 0.000000 0.000000 3.008988 -6.994767 -21.099086 -76.107971 17.298808 18.635825 86.261874 -0.740292 3.063739 16.733943 4.642067 25.009240 0.887386 -1.151325 -3.496843 0.000000 0.000000 0.000000 2.695606 -9.065741 -21.305682 4.866585 -10.934815 -13.346471 50.417765 11.539402 8.601955 12.068684 15.434004 0.899369 -47.992068 4.294587 -2.886921 0.000000 0.000000 0.000000 0.976190 -2.386976 -19.836481 3.380196 6.300131 2.440406 2.513457 2.667148 1.189150 0.858104 4.608043 0.074520 0.000000 0.000000 0.000000 1.856715 1.629485 2.477227 -6.307653 2.145081 -2.860151 -15.726154 7.291853 3.958756 0.000000 0.000000 0.000000 2.264923 2.315520 1.557614 -0.768765 -4.162222 -4.525065 -0.877624 3.000597 -2.179925 65.520666 -14.354819 -40.601315 8.905337 -79.249278 8.112095 0.000000 0.000000 0.000000 2.737408 2.602955 1.778891 2.118699 -3.631814 7.135050 6.705302 5.223864 -6.341971 -23.109394 27.071076 59.102822 68.625083 88.837019 -69.557861 0.000000 0.000000 0.000000 
0.486319 27.438345 13.598335 0.000000 0.000000 0.000000 1.521005 -8.741969 -20.443205 -73.986446 13.595690 12.287605 64.395604 2.288146 1.129894 16.082225 6.839240 22.213969 1.358033 -1.184138 -2.957133 0.000000 0.000000 0.000000 3.060098 -10.014511 -20.690340 13.109777 -9.702619 -13.340977 48.212796 11.920944 6.426178 15.900781 15.179515 8.344830 -45.554022 4.215283 -2.550116 0.000000 0.000000 0.000000 2.105306 -4.232946 -19.386087 1.656326 8.978109 2.370674 2.356583 3.718190 0.887752 0.748313 4.673374 -0.190941 0.000000 0.000000 0.000000 1.718033 2.662667 2.088152 -5.238335 1.324193 -1.875117 -15.818885 8.755786 4.230731 0.000000 0.000000 0.000000 1.871766 3.520811 1.498192 -0.750302 -1.455526 -3.617751 -0.883721 3.113139 -1.385843 67.578950 -12.057609 -41.997081 7.276776 -83.058160 5.835472 0.000000 0.000000 0.000000 2.076647 3.581092 1.271759 1.435209 -1.790498 6.146548 6.653665 3.650984 -5.873928 -29.056151 32.782681 63.089050 176.108095 78.970504 -177.921305 0.000000 0.000000 0.000000 
1.211943 27.798933 20.919363 0.000000 0.000000 0.000000 0.788399 -8.388761 -19.082278 -68.000837 8.714317 2.935229 47.299289 5.000800 0.691796 13.221985 9.163253 20.617394 1.518847 -1.256589 -2.412628 0.000000 0.000000 0.000000 4.350122 -7.056430 -19.201361 20.266129 -7.038308 -13.420536 48.156259 11.071862 3.319209 16.637694 11.564927 11.804121 -39.160418 3.937094 -1.606489 0.000000 0.000000 0.000000 1.890237 -3.653140 -18.299240 1.139352 11.953232 1.781779 2.397670 4.808067 0.743320 1.086127 3.050183 0.241351 0.000000 0.000000 0.000000 1.409209 3.670985 1.688154 -4.191869 0.814260 -0.420192 -15.178087 10.781617 4.042165 0.000000 0.000000 0.000000 1.561371 4.692087 1.346888 -0.809025 0.876902 -3.137468 -0.164130 2.294557 -0.702967 66.809673 -11.134090 -45.100043 3.945103 -85.896015 2.329530 0.000000 0.000000 0.000000 1.896080 4.591105 0.746995 0.852177 -0.208414 5.771086 7.596614 1.287138 -4.226131 -28.751937 36.509728 64.577854 177.807296 71.175216 179.833471 0.000000 0.000000 0.000000 
